{
    "asset": {
        "generator": "FBX2glTF v0.9.7",
        "version": "2.0"
    },
    "scene": 0,
    "buffers": [
        {
            "byteLength": 23532,
            "uri": "buffer.bin"
        }
    ],
    "bufferViews": [
        {
            "buffer": 0,
            "byteLength": 852,
            "byteOffset": 0,
            "target": 34963
        },
        {
            "buffer": 0,
            "byteLength": 2520,
            "byteOffset": 852,
            "target": 34962
        },
        {
            "buffer": 0,
            "byteLength": 2520,
            "byteOffset": 3372,
            "target": 34962
        },
        {
            "buffer": 0,
            "byteLength": 1680,
            "byteOffset": 5892,
            "target": 34962
        },
        {
            "buffer": 0,
            "byteLength": 1368,
            "byteOffset": 7572,
            "target": 34963
        },
        {
            "buffer": 0,
            "byteLength": 5472,
            "byteOffset": 8940,
            "target": 34962
        },
        {
            "buffer": 0,
            "byteLength": 5472,
            "byteOffset": 14412,
            "target": 34962
        },
        {
            "buffer": 0,
            "byteLength": 3648,
            "byteOffset": 19884,
            "target": 34962
        }
    ],
    "scenes": [
        {
            "name": "Root Scene",
            "nodes": [
                0
            ]
        }
    ],
    "accessors": [
        {
            "componentType": 5123,
            "type": "SCALAR",
            "count": 426,
            "bufferView": 0,
            "byteOffset": 0
        },
        {
            "componentType": 5126,
            "type": "VEC3",
            "count": 210,
            "bufferView": 1,
            "byteOffset": 0,
            "min": [
                -10.5,
                -2.50000047683716,
                -4.1890435218811
            ],
            "max": [
                1.50000011920929,
                2.5,
                4.18904447555542
            ]
        },
        {
            "componentType": 5126,
            "type": "VEC3",
            "count": 210,
            "bufferView": 2,
            "byteOffset": 0
        },
        {
            "componentType": 5126,
            "type": "VEC2",
            "count": 210,
            "bufferView": 3,
            "byteOffset": 0
        },
        {
            "componentType": 5123,
            "type": "SCALAR",
            "count": 684,
            "bufferView": 4,
            "byteOffset": 0
        },
        {
            "componentType": 5126,
            "type": "VEC3",
            "count": 456,
            "bufferView": 5,
            "byteOffset": 0,
            "min": [
                -0.412346690893173,
                -5.4905743598938,
                -6.76648807525635
            ],
            "max": [
                8.58988952636719,
                3.18470168113708,
                10.7840309143066
            ]
        },
        {
            "componentType": 5126,
            "type": "VEC3",
            "count": 456,
            "bufferView": 6,
            "byteOffset": 0
        },
        {
            "componentType": 5126,
            "type": "VEC2",
            "count": 456,
            "bufferView": 7,
            "byteOffset": 0
        }
    ],
    "images": [
        {
            "name": "wornconcrete01.png",
            "uri": "wornconcrete01.png"
        },
        {
            "name": "bridgeplanks01.png",
            "uri": "bridgeplanks01.png"
        }
    ],
    "samplers": [
        {}
    ],
    "textures": [
        {
            "name": "Map #19",
            "sampler": 0,
            "source": 0
        },
        {
            "name": "Map #20",
            "sampler": 0,
            "source": 1
        }
    ],
    "materials": [
        {
            "name": "Material #19",
            "alphaMode": "OPAQUE",
            "extras": {
                "fromFBX": {
                    "shadingModel": "Phong",
                    "isTruePBR": false
                }
            },
            "pbrMetallicRoughness": {
                "baseColorTexture": {
                    "index": 0,
                    "texCoord": 0
                },
                "baseColorFactor": [
                    1.0,
                    1.0,
                    1.0,
                    1.0
                ],
                "metallicFactor": 0.400000005960464,
                "roughnessFactor": 0.70710676908493
            }
        },
        {
            "name": "Material #20",
            "alphaMode": "OPAQUE",
            "extras": {
                "fromFBX": {
                    "shadingModel": "Phong",
                    "isTruePBR": false
                }
            },
            "pbrMetallicRoughness": {
                "baseColorTexture": {
                    "index": 1,
                    "texCoord": 0
                },
                "baseColorFactor": [
                    1.0,
                    1.0,
                    1.0,
                    1.0
                ],
                "metallicFactor": 0.400000005960464,
                "roughnessFactor": 0.70710676908493
            }
        }
    ],
    "meshes": [
        {
            "name": "Box05",
            "primitives": [
                {
                    "material": 0,
                    "mode": 4,
                    "attributes": {
                        "NORMAL": 2,
                        "POSITION": 1,
                        "TEXCOORD_0": 3
                    },
                    "indices": 0
                }
            ]
        },
        {
            "name": "MTIMBER04",
            "primitives": [
                {
                    "material": 1,
                    "mode": 4,
                    "attributes": {
                        "NORMAL": 6,
                        "POSITION": 5,
                        "TEXCOORD_0": 7
                    },
                    "indices": 4
                }
            ]
        }
    ],
    "nodes": [
        {
            "name": "RootNode",
            "translation": [
                0.0,
                0.0,
                0.0
            ],
            "rotation": [
                0.0,
                0.0,
                0.0,
                1.0
            ],
            "scale": [
                1.0,
                1.0,
                1.0
            ],
            "children": [
                1,
                2
            ]
        },
        {
            "name": "Box05",
            "translation": [
                -3.27835408597821e-07,
                -2.50000023841858,
                4.5
            ],
            "rotation": [
                1.54543116082095e-08,
                -0.707106709480286,
                1.54543080554959e-08,
                0.707106828689575
            ],
            "scale": [
                1.0,
                1.0,
                1.0
            ],
            "mesh": 0
        },
        {
            "name": "MTIMBER04",
            "translation": [
                -2.74790644645691,
                -0.137080073356628,
                -1.55716502666473
            ],
            "rotation": [
                2.07442898414456e-08,
                1.17096543572615e-09,
                4.39308500688185e-08,
                1.0
            ],
            "scale": [
                0.678391993045807,
                0.678391993045807,
                0.714738011360168
            ],
            "mesh": 1
        }
    ]
}
