<?xml version="1.0" encoding="UTF-8" standalone="no"?>
<svg
   id="bf9b6759-9f8d-4473-be51-4c286386b1fd"
   data-name="Layer 1"
   viewBox="0 0 32 32"
   version="1.1"
   sodipodi:docname="edit-face.svg"
   inkscape:version="1.2.1 (9c6d41e410, 2022-07-14)"
   xmlns:inkscape="http://www.inkscape.org/namespaces/inkscape"
   xmlns:sodipodi="http://sodipodi.sourceforge.net/DTD/sodipodi-0.dtd"
   xmlns="http://www.w3.org/2000/svg"
   xmlns:svg="http://www.w3.org/2000/svg">
  <defs
     id="defs11" />
  <sodipodi:namedview
     id="namedview15"
     pagecolor="#505050"
     bordercolor="#eeeeee"
     borderopacity="1"
     inkscape:showpageshadow="0"
     inkscape:pageopacity="0"
     inkscape:pagecheckerboard="0"
     inkscape:deskcolor="#505050"
     showgrid="false"
     inkscape:zoom="25.4375"
     inkscape:cx="9.3169533"
     inkscape:cy="16.019656"
     inkscape:window-width="1920"
     inkscape:window-height="1001"
     inkscape:window-x="-9"
     inkscape:window-y="-9"
     inkscape:window-maximized="1"
     inkscape:current-layer="polygon12" />
  <rect
     class="a1179765-a8e0-44be-aeb2-c9e179e388ba"
     width="32"
     height="32"
     id="rect6"
     style="opacity:0" />
  <g
     id="polygon8"
     class="a57a68c6-9315-44ce-b2b6-4a71ca22ad5c">
    <path
       style="color:#000000;fill:#ececec;fill-rule:evenodd;stroke-linecap:round;stroke-linejoin:round;-inkscape-stroke:none"
       d="m 15.658203,0.04882812 a 0.3750375,0.3750375 0 0 0 -0.365234,0.0039063 L 1.4375,8.0195313 a 0.3750375,0.3750375 0 0 0 0.00781,0.6542968 L 15.041016,16.035156 a 0.3750375,0.3750375 0 0 0 0.357422,0 L 29.599609,8.328125 a 0.3750375,0.3750375 0 0 0 0,-0.6582031 z M 15.484375,0.80859375 28.636719,7.9960937 15.21875,15.277344 2.3925781,8.3359375 Z"
       id="path876" />
  </g>
  <g
     id="polygon10"
     class="a57a68c6-9315-44ce-b2b6-4a71ca22ad5c">
    <path
       style="color:#000000;fill:#e6e6e6;fill-rule:evenodd;stroke-linecap:round;stroke-linejoin:round;-inkscape-stroke:none"
       d="M 1.8027344,8.015625 A 0.3750375,0.3750375 0 0 0 1.2480469,8.3457031 V 23.671875 a 0.3750375,0.3750375 0 0 0 0.1914062,0.326172 L 15.033203,31.705078 A 0.3750375,0.3750375 0 0 0 15.59375,31.378906 V 15.705078 A 0.3750375,0.3750375 0 0 0 15.398438,15.375 Z M 1.9980469,8.9726563 14.84375,15.927734 V 30.734375 L 1.9980469,23.453125 Z"
       id="path870" />
  </g>
  <g
     id="polygon12"
     class="a57a68c6-9315-44ce-b2b6-4a71ca22ad5c">
    <path
       style="color:#000000;fill:#f18810;fill-rule:evenodd;stroke-linecap:round;stroke-linejoin:round;-inkscape-stroke:none;fill-opacity:1"
       d="M 29.240234,7.6679687 15.041016,15.375 c -0.12145,0.06538 -0.197211,0.192148 -0.197266,0.330078 v 15.673828 c 1.44e-4,0.283643 0.30295,0.464471 0.552734,0.330078 l 14.546875,-7.792968 c 0.125344,-0.06648 0.202443,-0.197999 0.199219,-0.339844 L 29.794922,7.9902344 C 29.789733,7.7085848 29.487483,7.5329822 29.240234,7.6679687 Z M 29.058594,8.6210938 29.386719,23.363281 15.59375,30.75 29.386719,23.363281 Z"
       id="path297"
       sodipodi:nodetypes="cccccccccccccc" />
  </g>
</svg>
