<svg xmlns="http://www.w3.org/2000/svg"  viewBox="0 0 48 48" width="32px" height="32px"><path fill="#B0BEC5" d="M42 12L39 12 39 9 36 9 36 6 42 6zM9 12L6 12 6 6 12 6 12 9 9 9zM42 36L39 36 39 39 36 39 36 42 42 42zM9 36L6 36 6 42 12 42 12 39 9 39zM6 16H9V22H6zM6 26H9V32H6zM39 16H42V22H39zM39 26H42V32H39zM26 6H32V9H26zM16 6H22V9H16zM26 39H32V42H26zM16 39H22V42H16z"/><g><path fill="#2196F3" d="M35 13L24 13 35 24z"/><path fill="#2196F3" d="M32.55,13.595c-0.512,0-1.022,0.195-1.413,0.586L25.172,20L28,22.828l5.964-5.819c0.781-0.781,0.781-2.047,0-2.828C33.573,13.79,33.063,13.595,32.55,13.595z"/></g><path fill="#1565C0" d="M6 24H24V42H6z"/></svg>