<?xml version="1.0" encoding="utf-8"?>
<!-- Generator: Adobe Illustrator 24.1.2, SVG Export Plug-In . SVG Version: 6.00 Build 0)  -->
<svg version="1.1" id="Слой_1" xmlns="http://www.w3.org/2000/svg" xmlns:xlink="http://www.w3.org/1999/xlink" x="0px" y="0px"
	 width="32px" height="32px" viewBox="0 0 32 32" style="enable-background:new 0 0 32 32;" xml:space="preserve">
<style type="text/css">
	.st0{fill:#94CB42;}
	.st1{fill:#313839;}
	.st2{fill:#76A32E;}
	.st3{fill:#76A42E;}
	.st4{fill:#538D16;}
</style>
<g>
	<path class="st0" fill="#94CB42" d="M22.5,15.9c-1.2,0.1-2.2-0.7-3.5-0.4c-0.4,0.1-1,0-1.5-0.2c-0.7-0.4-1.5-0.7-2.4-0.6c-1.7,0.1-2.2,2.1-3.6,2.9
		c-0.7,0.4-1.3,0.8-2.1,1c-2.6,1.5,1,3.4,1.9,4.6c-2.1-1.6-4.1-3.6-5.3-6.1C5.5,14.3,4.6,11,1.8,9.4c1.3-1.1,3.1-1.7,4.9-1.7
		c1.6,0.2,3,0.6,4.6,0.3 M25.8,20.2 M15.1,6.3c-0.4-0.4-1-0.1-1.5,0.1c1.5-1.9,3.7-3.6,6.2-2.4c1.1,0.4,2.2,1,2.7,2.1
		c1.1,2,1.8,4.6,3.9,5.8c1.2,1,3.8,0.3,4.4,2c-3.7,0.7-3,5.7-6.1,7.3c-3.3,2.5-5.2,0.8-8.2,1.8c-1.6,0.8-3.5,1.7-4.8,0.1 M9.5,15.9
		c0,0.8,1.1,1.1,1.9,0.8c0.8-0.3,0.9-1.3,1.5-2c0.2-0.3,0.3-0.7,0-0.9C11.5,12.5,9.7,14.5,9.5,15.9z"/>
	<path class="st1" fill="#523e2c" d="M1.8,9.4c2.8,1.5,3.7,4.8,4.5,7.6c1.1,2.5,3.1,4.5,5.3,6.1l0,0c1.3,1.6,3.4,0.8,4.9,0c3-1,4.9,0.6,8.2-1.8
		c3-1.6,2.4-6.7,6.1-7.3c0.1,1.7-0.1,3.5-0.1,5.3c0,0.1-0.1,0.1-0.1,0.2c-5.6,3.3-11.1,6.7-16.8,9.8C9.4,26.9,5.4,23.8,1.2,21
		c-0.8-0.7,0-3.7-0.1-4.7c0.2-2.1,0.2-4.3,0.6-6.4C1.6,9.7,1.6,9.4,1.8,9.4z"/>
	<path class="st2" fill="#76A32E" d="M13.6,6.3c0.4-0.2,1-0.7,1.5-0.1c1.7,1.5,3.8,2,5.2,3.8c1.5,1.7-0.1,3.5-2.1,2.9c-1.6-0.1-3.1,1.9-4.5,0.3
		C10.1,9.4,8.5,9.9,13.6,6.3C13.6,6.4,13.6,6.3,13.6,6.3L13.6,6.3z M15.7,12.8c1,0,2-0.6,2-1.6c-0.1-1.1-1.5-1.5-2.1-2.1
		c-1-0.6-0.8-2.6-2.4-1.9c-0.9,0.6-1.6,1.7-0.7,2.6C13.3,11,14,12.8,15.7,12.8z"/>
	<path class="st0" fill="#94CB42" d="M13.6,6.3C13.6,6.3,13.6,6.4,13.6,6.3L13.6,6.3z"/>
	<path class="st0" fill="#94CB42" d="M13.6,6.4C13.6,6.4,13.4,6.4,13.6,6.4C13.4,6.4,13.6,6.4,13.6,6.4z"/>
	<path class="st2" fill="#76A32E" d="M11.5,23.2L11.5,23.2C11.5,23.1,11.5,23.2,11.5,23.2c-1-1.2-4.5-3.3-2-4.7c2-0.6,3.3-2.1,4.6-3.6
		c1-0.7,2.5-0.3,3.4,0.2c0.9,0.6,1.9-0.1,2.9,0.3c1.7,0.6,3.4,0.1,5,0.6c1.9,0.4,1.5,3.1,0.1,4c-2.1,2.1-5.3,1-7.8,1.6
		C15.6,22.1,13.8,25.1,11.5,23.2z M13.6,23.3c2.2-0.9,2-1.7,5-2.1c0.8-0.3,0.6-1.5-0.1-1.8c-1.2-0.7-2.4,0.2-3.6,0.3
		c-0.4,0-1,0-1.5,0.2C11.5,20.3,11.5,23.2,13.6,23.3z M24.2,17.4c-0.9,0-2,0.8-3,0.9c-0.4,0.1-1.2,0.2-1,0.8c0.8,1.8,3,0.3,4.5,0.9
		C26.6,20.1,26.1,17.3,24.2,17.4z"/>
	<path class="st3" fill="#76A42E" d="M9.5,15.9c0.2-1.5,1.9-3.4,3.4-2.1c0.2,0.2,0.2,0.7,0,0.9c-0.6,0.7-0.6,1.7-1.5,2C10.8,17.1,9.5,16.7,9.5,15.9
		z"/>
	<path class="st0" fill="#94CB42" d="M11.5,23.1C11.5,23.2,11.5,23.2,11.5,23.1C11.5,23.2,11.5,23.2,11.5,23.1z"/>
	<path class="st4" fill="#538D16" d="M15.7,12.8c-1-0.1-1.9-0.6-2.4-1.7c-0.4-1-1.9-2.1-0.8-3.3c0.4-0.8,1.8-1.2,2.1-0.1c0.1,0.6,0.4,1,0.9,1.3
		c0.7,0.7,2,1,2.1,2.1C17.6,12.2,16.7,12.7,15.7,12.8z"/>
	<path class="st4" fill="#538D16" d="M13.6,23.3c-2-0.1-2-3-0.1-3.4c0.4-0.1,1-0.1,1.5-0.2c1.2-0.1,2.4-1,3.6-0.3c0.8,0.3,1,1.5,0.1,1.8
		C15.6,21.7,15.7,22.4,13.6,23.3z"/>
	<path class="st4" fill="#538D16" d="M24.2,17.4c1.9-0.1,2.2,2.7,0.4,2.6c-1.3-0.4-2.8,0.4-4.1-0.3c-0.3-0.2-0.6-0.9-0.1-1.1
		C21.7,18.4,23.1,17.6,24.2,17.4z"/>
</g>
</svg>
