<?xml version="1.0" encoding="UTF-8" standalone="no"?>
<svg
   id="b6ff88bb-a331-467a-9b2d-9c0baecdc561"
   data-name="Layer 1"
   viewBox="0 0 32 32"
   version="1.1"
   sodipodi:docname="edit-vertex.svg"
   inkscape:version="1.2.1 (9c6d41e410, 2022-07-14)"
   xmlns:inkscape="http://www.inkscape.org/namespaces/inkscape"
   xmlns:sodipodi="http://sodipodi.sourceforge.net/DTD/sodipodi-0.dtd"
   xmlns="http://www.w3.org/2000/svg"
   xmlns:svg="http://www.w3.org/2000/svg">
  <sodipodi:namedview
     id="namedview16752"
     pagecolor="#505050"
     bordercolor="#eeeeee"
     borderopacity="1"
     inkscape:showpageshadow="0"
     inkscape:pageopacity="0"
     inkscape:pagecheckerboard="0"
     inkscape:deskcolor="#505050"
     showgrid="false"
     inkscape:zoom="12.71875"
     inkscape:cx="3.8525799"
     inkscape:cy="11.439803"
     inkscape:window-width="1920"
     inkscape:window-height="1001"
     inkscape:window-x="-9"
     inkscape:window-y="-9"
     inkscape:window-maximized="1"
     inkscape:current-layer="b6ff88bb-a331-467a-9b2d-9c0baecdc561" />
  <defs
     id="defs16727">
    <style
       id="style16725">.b1dd6a64-3dc1-47e3-930b-0cffdbe4b55f{fill:#fff;}.aed926e6-d2c1-4ca0-bf97-6b1549d9979f{fill:none;}.a86cd14c-e418-4622-9346-d9a0d5260266,.aed926e6-d2c1-4ca0-bf97-6b1549d9979f{stroke:#ccc;stroke-linecap:round;stroke-linejoin:round;stroke-width:0.75px;fill-rule:evenodd;}.a86cd14c-e418-4622-9346-d9a0d5260266{fill:#da3f39;}</style>
  </defs>
  <rect
     class="b1dd6a64-3dc1-47e3-930b-0cffdbe4b55f"
     width="32"
     height="32"
     id="rect16729"
     style="opacity:0" />
  <path
     style="color:#000000;fill:#333333;fill-rule:evenodd;stroke-linecap:round;stroke-linejoin:round;-inkscape-stroke:none"
     d="m 17.125,1.9863281 a 0.375,0.375 0 0 0 -0.509766,0.1503907 0.375,0.375 0 0 0 0.152344,0.5078125 l 10.642578,5.78125 A 0.375,0.375 0 0 0 27.917969,8.2753906 0.375,0.375 0 0 0 27.767578,7.7675781 Z M 14.71875,2.0605469 3.7578125,7.9082031 A 0.375,0.375 0 0 0 3.6035156,8.4160156 0.375,0.375 0 0 0 4.1113281,8.5703125 L 15.070313,2.7226563 a 0.375,0.375 0 0 0 0.154296,-0.5058594 0.375,0.375 0 0 0 -0.505859,-0.15625 z"
     id="path16731"
     transform="translate(-0.30451 -0.1218)" />
  <path
     style="color:#000000;fill:#333333;fill-rule:evenodd;stroke-linecap:round;stroke-linejoin:round;-inkscape-stroke:none"
     d="M 3.9628906,9.234375 A 0.375,0.375 0 0 0 3.7402344,9.4140625 0.375,0.375 0 0 0 3.890625,9.921875 l 10.425781,5.644531 a 0.375,0.375 0 0 0 0.507813,-0.15039 0.375,0.375 0 0 0 -0.150391,-0.507813 L 4.2480469,9.2636719 A 0.375,0.375 0 0 0 3.9628906,9.234375 Z M 3.0039063,9.8515625 a 0.375,0.375 0 0 0 -0.375,0.3750005 v 11.734374 a 0.375,0.375 0 0 0 0.375,0.375 0.375,0.375 0 0 0 0.375,-0.375 V 10.226563 a 0.375,0.375 0 0 0 -0.375,-0.3750005 z M 3.9589844,23.408203 a 0.375,0.375 0 0 0 -0.2265625,0.175781 0.375,0.375 0 0 0 0.140625,0.511719 l 10.4492191,5.921875 a 0.375,0.375 0 0 0 0.509765,-0.140625 0.375,0.375 0 0 0 -0.140625,-0.511719 L 4.2441406,23.443359 a 0.375,0.375 0 0 0 -0.2851562,-0.03516 z"
     id="path16733"
     transform="translate(-0.30451 -0.1218)" />
  <path
     style="color:#000000;fill:#333333;fill-rule:evenodd;stroke-linecap:round;stroke-linejoin:round;-inkscape-stroke:none"
     d="M 27.210937,8.9882813 16.527344,14.863281 a 0.375,0.375 0 0 0 -0.148438,0.507813 0.375,0.375 0 0 0 0.509766,0.148437 L 27.572266,9.6464844 A 0.375,0.375 0 0 0 27.71875,9.1367188 0.375,0.375 0 0 0 27.210937,8.9882813 Z m 1.453125,0.6269531 A 0.375,0.375 0 0 0 28.300781,10 l 0.320313,11.890625 a 0.375,0.375 0 0 0 0.384765,0.365234 0.375,0.375 0 0 0 0.363282,-0.384765 L 29.050781,9.9804688 A 0.375,0.375 0 0 0 28.664062,9.6152344 Z M 15.560547,16.800781 a 0.375,0.375 0 0 0 -0.375,0.375 v 11.78125 a 0.375,0.375 0 0 0 0.375,0.375 0.375,0.375 0 0 0 0.375,-0.375 v -11.78125 a 0.375,0.375 0 0 0 -0.375,-0.375 z m 12.474609,6.503906 A 0.375,0.375 0 0 0 27.75,23.332031 l -11.298828,6.054688 a 0.375,0.375 0 0 0 -0.154297,0.507812 0.375,0.375 0 0 0 0.507812,0.152344 l 11.300782,-6.052734 a 0.375,0.375 0 0 0 0.152343,-0.507813 0.375,0.375 0 0 0 -0.222656,-0.181641 z"
     id="path16735"
     transform="translate(-0.30451 -0.1218)" />
  <g
     id="path16737"
     class="a86cd14c-e418-4622-9346-d9a0d5260266"
     transform="translate(-0.30451 -0.1218)"
     style="stroke:#da3f39">
    <g
       id="path17272">
      <path
         style="color:#000000;fill:#f3972e;fill-rule:evenodd;stroke:none;stroke-width:0.75px;stroke-linecap:round;stroke-linejoin:round;-inkscape-stroke:none"
         d="M 15.89612,2.9226 A 1.2113,1.2113 0 1 0 14.685,1.71149 1.21346,1.21346 0 0 0 15.89612,2.9226 Z"
         id="path4176" />
      <path
         style="color:#000000;fill:#f3972e;fill-rule:evenodd;stroke:none;stroke-linecap:round;stroke-linejoin:round;-inkscape-stroke:none"
         d="M 16.175781,0.15039062 C 15.873104,0.0971154 15.562938,0.13263979 15.289063,0.24609375 14.741312,0.47300167 14.310439,1.0201513 14.310547,1.7109375 a 0.3750375,0.3750375 0 0 0 0,0.00195 c 0.0017,0.870497 0.713487,1.5823074 1.583984,1.5839844 a 0.3750375,0.3750375 0 0 0 0.002,0 c 0.690787,1.026e-4 1.237941,-0.4307629 1.464844,-0.9785156 0.226904,-0.5477527 0.144669,-1.2401005 -0.34375,-1.72851565 -0.244209,-0.24420759 -0.53912,-0.3861779 -0.841797,-0.43945313 z m -0.599609,0.78906251 c 0.2954,-0.12237083 0.637426,-0.0949934 0.912109,0.17968747 0.274683,0.274681 0.302056,0.6167079 0.179688,0.9121094 C 16.5456,2.3266515 16.285014,2.5469327 15.896484,2.546875 15.430292,2.5459769 15.061449,2.1771295 15.060547,1.7109375 15.060486,1.3224074 15.280771,1.061824 15.576172,0.93945313 Z"
         id="path4178" />
    </g>
  </g>
  <g
     id="path16739"
     class="a86cd14c-e418-4622-9346-d9a0d5260266"
     transform="translate(-0.30451 -0.1218)"
     style="stroke:#da3f39">
    <g
       id="path17266">
      <path
         style="color:#000000;fill:#f3972e;fill-rule:evenodd;stroke:none;stroke-width:0.75px;stroke-linecap:round;stroke-linejoin:round;-inkscape-stroke:none"
         d="M 28.48574,10.0103 A 1.2113,1.2113 0 1 0 27.27463,8.79919 1.21345,1.21345 0 0 0 28.48574,10.0103 Z"
         id="path4170" />
      <path
         style="color:#000000;fill:#f3972e;fill-rule:evenodd;stroke:none;stroke-linecap:round;stroke-linejoin:round;-inkscape-stroke:none"
         d="m 28.765625,7.2363281 c -0.302677,-0.053276 -0.612843,-0.015797 -0.886719,0.097656 -0.547752,0.2269071 -0.978624,0.7740561 -0.978515,1.4648437 a 0.3750375,0.3750375 0 0 0 0,0.00195 c 0.0017,0.8704964 0.713488,1.5823077 1.583984,1.5839847 a 0.3750375,0.3750375 0 0 0 0.002,0 C 29.177116,10.384874 29.724265,9.9540022 29.951172,9.40625 30.178079,8.8584978 30.09584,8.1661526 29.607422,7.6777344 29.363213,7.4335253 29.068302,7.2896043 28.765625,7.2363281 Z m -0.599609,0.7910157 c 0.295401,-0.1223705 0.637426,-0.094995 0.912109,0.1796875 0.274683,0.2746827 0.302058,0.616708 0.179687,0.9121093 -0.12237,0.2954013 -0.382953,0.515686 -0.771484,0.515625 -0.466189,-8.981e-4 -0.835039,-0.3697482 -0.835937,-0.8359375 -6.1e-5,-0.388531 0.220223,-0.6491139 0.515625,-0.7714843 z"
         id="path4172" />
    </g>
  </g>
  <g
     id="path16741"
     class="a86cd14c-e418-4622-9346-d9a0d5260266"
     transform="translate(-0.30451 -0.1218)"
     style="stroke:#da3f39">
    <g
       id="path17260">
      <path
         style="color:#000000;fill:#f3972e;fill-rule:evenodd;stroke:none;stroke-width:0.75px;stroke-linecap:round;stroke-linejoin:round;-inkscape-stroke:none"
         d="m 15.56,17.02512 a 1.2113,1.2113 0 1 0 -1.21111,-1.2111 1.21352,1.21352 0 0 0 1.21111,1.2111 z"
         id="path4164" />
      <path
         style="color:#000000;fill:#f3972e;fill-rule:evenodd;stroke:none;stroke-linecap:round;stroke-linejoin:round;-inkscape-stroke:none"
         d="m 15.839844,14.251953 c -0.302678,-0.05328 -0.612843,-0.01775 -0.886719,0.0957 -0.547752,0.226911 -0.97863,0.776008 -0.978516,1.466797 0.0017,0.87046 0.713524,1.584211 1.583985,1.585938 a 0.3750375,0.3750375 0 0 0 0.002,0 c 0.690789,1.08e-4 1.237937,-0.430762 1.464844,-0.978516 0.226906,-0.547754 0.144671,-1.242052 -0.34375,-1.730469 -0.244211,-0.244208 -0.539119,-0.386178 -0.841797,-0.439453 z m -0.59961,0.789063 c 0.295401,-0.122373 0.637425,-0.09304 0.91211,0.18164 0.274684,0.274683 0.302057,0.616708 0.179687,0.91211 -0.12237,0.295402 -0.382952,0.515686 -0.771484,0.515625 -0.465641,-9.24e-4 -0.83415,-0.370522 -0.835938,-0.835938 v -0.002 c 7.07e-4,-0.387411 0.220741,-0.649326 0.515625,-0.771484 z"
         id="path4166" />
    </g>
  </g>
  <g
     id="path16743"
     class="a86cd14c-e418-4622-9346-d9a0d5260266"
     transform="translate(-0.30451 -0.1218)"
     style="stroke:#da3f39">
    <g
       id="path17254">
      <path
         style="color:#000000;fill:#f3972e;fill-rule:evenodd;stroke:none;stroke-width:0.75px;stroke-linecap:round;stroke-linejoin:round;-inkscape-stroke:none"
         d="M 3.00445,10.22748 A 1.2113,1.2113 0 1 0 1.79334,9.01637 1.21345,1.21345 0 0 0 3.00445,10.22748 Z"
         id="path4158" />
      <path
         style="color:#000000;fill:#f3972e;fill-rule:evenodd;stroke:none;stroke-linecap:round;stroke-linejoin:round;-inkscape-stroke:none"
         d="M 3.2832031,7.4550781 C 2.9805257,7.4018019 2.6723136,7.4373277 2.3984375,7.5507812 1.8506853,7.7776884 1.4178604,8.3248374 1.4179687,9.015625 a 0.3750375,0.3750375 0 0 0 0,0.00195 C 1.4196458,9.8880746 2.1334098,10.599885 3.0039063,10.601563 3.6946939,10.601671 4.243796,10.170799 4.4707031,9.6230469 4.6976103,9.0752947 4.6153713,8.3829495 4.1269531,7.8945312 3.882744,7.6503221 3.5858805,7.5083543 3.2832031,7.4550781 Z M 2.6835938,8.2441406 C 2.9789951,8.1217702 3.3210204,8.1510985 3.5957031,8.4257813 3.8703859,8.700464 3.8997142,9.0405362 3.7773438,9.3359375 3.6551872,9.6308224 3.3932689,9.8508528 3.0058594,9.8515625 2.5396701,9.8506644 2.1688669,9.4818143 2.1679688,9.015625 2.1679078,8.6270939 2.3881924,8.3665111 2.6835938,8.2441406 Z"
         id="path4160" />
    </g>
  </g>
  <g
     id="path16745"
     class="a86cd14c-e418-4622-9346-d9a0d5260266"
     transform="translate(-0.30451 -0.1218)"
     style="stroke:#da3f39">
    <g
       id="path17248">
      <path
         style="color:#000000;fill:#f3972e;fill-rule:evenodd;stroke:none;stroke-width:0.75px;stroke-linecap:round;stroke-linejoin:round;-inkscape-stroke:none"
         d="M 3.00445,24.38272 A 1.2113,1.2113 0 1 0 1.79334,23.17161 1.21345,1.21345 0 0 0 3.00445,24.38272 Z"
         id="path4152" />
      <path
         style="color:#000000;fill:#f3972e;fill-rule:evenodd;stroke:none;stroke-linecap:round;stroke-linejoin:round;-inkscape-stroke:none"
         d="m 3.2832031,21.609375 c -0.3026774,-0.05328 -0.6108895,-0.01775 -0.8847656,0.0957 -0.5477522,0.226907 -0.9805771,0.776009 -0.9804688,1.466797 0.00168,0.870496 0.7154411,1.58426 1.5859376,1.585937 0.6907876,1.09e-4 1.2398897,-0.430763 1.4667968,-0.978515 0.2269072,-0.547752 0.1446682,-1.242051 -0.34375,-1.730469 -0.2442091,-0.244209 -0.5410726,-0.386177 -0.84375,-0.439453 z m -0.5996093,0.789062 c 0.2954013,-0.12237 0.6374266,-0.09304 0.9121093,0.181641 0.2746828,0.274683 0.3040111,0.616708 0.1816407,0.912109 -0.1221566,0.294885 -0.3840749,0.514916 -0.7714844,0.515625 -0.4656459,-8.97e-4 -0.8361352,-0.370516 -0.8378906,-0.835937 v -0.002 c 7.097e-4,-0.38741 0.2207401,-0.649328 0.515625,-0.771485 z"
         id="path4154" />
    </g>
  </g>
  <g
     id="path16747"
     class="a86cd14c-e418-4622-9346-d9a0d5260266"
     transform="translate(-0.30451 -0.1218)"
     style="stroke:#da3f39">
    <g
       id="path17242">
      <path
         style="color:#000000;fill:#f3972e;fill-rule:evenodd;stroke:none;stroke-width:0.75px;stroke-linecap:round;stroke-linejoin:round;-inkscape-stroke:none"
         d="M 15.56,31.5 A 1.2113,1.2113 0 1 0 14.34889,30.28851 1.21377,1.21377 0 0 0 15.56,31.5 Z"
         id="path4146" />
      <path
         style="color:#000000;fill:#f3972e;fill-rule:evenodd;stroke:none;stroke-linecap:round;stroke-linejoin:round;-inkscape-stroke:none"
         d="m 15.839844,28.726562 c -0.302647,-0.05333 -0.612833,-0.01768 -0.886719,0.0957 -0.547772,0.226764 -0.978407,0.776064 -0.978516,1.466796 0.0016,0.870544 0.713442,1.584032 1.583985,1.585938 a 0.3750375,0.3750375 0 0 0 0.002,0 c 0.690733,1.08e-4 1.237907,-0.430815 1.464844,-0.978516 0.226936,-0.5477 0.144552,-1.240059 -0.34375,-1.728515 -0.244152,-0.244228 -0.53915,-0.388073 -0.841797,-0.441407 z m -0.59961,0.789063 c 0.295411,-0.122293 0.637496,-0.09306 0.91211,0.181641 0.274613,0.2747 0.302073,0.616737 0.179687,0.912109 -0.122385,0.295372 -0.38299,0.515686 -0.771484,0.515625 -0.465748,-0.001 -0.834203,-0.370415 -0.835938,-0.835938 v -0.002 c 8.32e-4,-0.387372 0.220732,-0.649405 0.515625,-0.771484 z"
         id="path4148" />
    </g>
  </g>
  <g
     id="path16749"
     class="a86cd14c-e418-4622-9346-d9a0d5260266"
     transform="translate(-0.30451 -0.1218)"
     style="stroke:#da3f39">
    <g
       id="path17236">
      <path
         style="color:#000000;fill:#f3972e;fill-rule:evenodd;stroke:none;stroke-width:0.75px;stroke-linecap:round;stroke-linejoin:round;-inkscape-stroke:none"
         d="m 28.99517,24.30248 a 1.2113,1.2113 0 1 0 -1.21111,-1.2111 1.21344,1.21344 0 0 0 1.21111,1.2111 z"
         id="path4140" />
      <path
         style="color:#000000;fill:#f3972e;fill-rule:evenodd;stroke:none;stroke-linecap:round;stroke-linejoin:round;-inkscape-stroke:none"
         d="m 29.275391,21.529297 c -0.302679,-0.05327 -0.612843,-0.01775 -0.886719,0.0957 -0.547752,0.226911 -0.980583,0.776008 -0.980469,1.466797 0.0017,0.870496 0.715442,1.584267 1.585938,1.585937 0.690789,1.09e-4 1.23989,-0.430762 1.466796,-0.978515 0.226907,-0.547754 0.144672,-1.242052 -0.34375,-1.730469 -0.24421,-0.244209 -0.539118,-0.386178 -0.841796,-0.439453 z m -0.59961,0.789062 c 0.295401,-0.122372 0.635472,-0.09304 0.910156,0.181641 0.274685,0.274682 0.304011,0.616707 0.181641,0.912109 -0.12237,0.295402 -0.382952,0.515686 -0.771484,0.515625 -0.465643,-8.93e-4 -0.836135,-0.370519 -0.837891,-0.835937 v -0.002 c 7.05e-4,-0.387413 0.222692,-0.649326 0.517578,-0.771485 z"
         id="path4142" />
    </g>
  </g>
</svg>
