<?xml version="1.0" encoding="UTF-8" standalone="no"?>
<!DOCTYPE svg PUBLIC "-//W3C//DTD SVG 1.1//EN" "http://www.w3.org/Graphics/SVG/1.1/DTD/svg11.dtd">
<svg width="100%" height="100%" viewBox="0 0 40 40" version="1.1" xmlns="http://www.w3.org/2000/svg" xmlns:xlink="http://www.w3.org/1999/xlink" xml:space="preserve" xmlns:serif="http://www.serif.com/" style="fill-rule:evenodd;clip-rule:evenodd;stroke-linejoin:round;stroke-miterlimit:2;">
    <g id="HelpIcon">
        <g transform="matrix(1,0,0,1,-297.071,-225.295)">
            <path d="M317.071,232.923C323.899,232.923 329.443,238.467 329.443,245.295C329.443,252.124 323.899,257.668 317.071,257.668C310.242,257.668 304.699,252.124 304.699,245.295C304.699,238.467 310.242,232.923 317.071,232.923ZM317.071,234.307C323.136,234.307 328.059,239.231 328.059,245.295C328.059,251.36 323.136,256.284 317.071,256.284C311.006,256.284 306.083,251.36 306.083,245.295C306.083,239.231 311.006,234.307 317.071,234.307Z" style="fill:white;"/>
        </g>
        <g transform="matrix(20.3755,0,0,20.3755,14.1301,27.3025)">
            <path d="M0.044,-0.524C0.044,-0.555 0.054,-0.586 0.074,-0.618C0.094,-0.65 0.123,-0.676 0.161,-0.697C0.199,-0.718 0.243,-0.728 0.294,-0.728C0.341,-0.728 0.383,-0.719 0.419,-0.702C0.455,-0.684 0.483,-0.661 0.503,-0.631C0.522,-0.601 0.532,-0.568 0.532,-0.533C0.532,-0.506 0.527,-0.481 0.515,-0.46C0.504,-0.44 0.491,-0.422 0.475,-0.406C0.46,-0.391 0.432,-0.366 0.392,-0.33C0.381,-0.32 0.372,-0.311 0.365,-0.303C0.359,-0.296 0.354,-0.289 0.351,-0.282C0.347,-0.276 0.345,-0.27 0.343,-0.263C0.341,-0.257 0.339,-0.246 0.335,-0.23C0.329,-0.196 0.309,-0.179 0.277,-0.179C0.26,-0.179 0.246,-0.185 0.234,-0.196C0.223,-0.207 0.217,-0.223 0.217,-0.245C0.217,-0.272 0.221,-0.296 0.229,-0.316C0.238,-0.336 0.249,-0.354 0.263,-0.369C0.277,-0.384 0.296,-0.402 0.32,-0.423C0.341,-0.441 0.356,-0.455 0.365,-0.464C0.374,-0.473 0.382,-0.484 0.388,-0.495C0.395,-0.507 0.398,-0.519 0.398,-0.532C0.398,-0.558 0.388,-0.58 0.369,-0.598C0.35,-0.616 0.325,-0.625 0.294,-0.625C0.258,-0.625 0.232,-0.616 0.215,-0.598C0.198,-0.58 0.184,-0.553 0.172,-0.518C0.161,-0.481 0.14,-0.463 0.109,-0.463C0.091,-0.463 0.075,-0.469 0.063,-0.482C0.05,-0.495 0.044,-0.509 0.044,-0.524ZM0.282,0.011C0.262,0.011 0.245,0.005 0.23,-0.008C0.215,-0.021 0.208,-0.039 0.208,-0.062C0.208,-0.083 0.215,-0.1 0.229,-0.114C0.244,-0.128 0.261,-0.135 0.282,-0.135C0.303,-0.135 0.32,-0.128 0.334,-0.114C0.348,-0.1 0.355,-0.083 0.355,-0.062C0.355,-0.039 0.348,-0.021 0.333,-0.008C0.318,0.005 0.301,0.011 0.282,0.011Z" style="fill:white;fill-rule:nonzero;"/>
        </g>
    </g>
</svg>
