<?xml version="1.0" encoding="UTF-8" standalone="no"?>
<!DOCTYPE svg PUBLIC "-//W3C//DTD SVG 1.1//EN" "http://www.w3.org/Graphics/SVG/1.1/DTD/svg11.dtd">
<svg width="100%" height="100%" viewBox="0 0 40 40" version="1.1" xmlns="http://www.w3.org/2000/svg" xmlns:xlink="http://www.w3.org/1999/xlink" xml:space="preserve" xmlns:serif="http://www.serif.com/" style="fill-rule:evenodd;clip-rule:evenodd;stroke-linecap:round;stroke-linejoin:round;stroke-miterlimit:1.5;">
    <g id="NewIcon">
        <g transform="matrix(1.15871,0,0,1.15871,-250.894,-264.227)">
            <path d="M243.12,236.31C243.12,236.06 239.462,232.923 239.198,232.923L226.324,232.923C225.294,232.923 224.457,233.759 224.457,234.789L224.457,255.802C224.457,256.832 225.294,257.668 226.324,257.668L241.253,257.668C242.283,257.668 243.12,256.832 243.12,255.802L243.12,236.31Z" style="fill:none;stroke:white;stroke-width:0.86px;"/>
        </g>
        <g transform="matrix(0.775391,0,0,0.775391,-89.8882,-163.438)">
            <path d="M149.547,250.14C149.547,250.14 149.054,250.14 149.054,252.728C149.054,253 149.275,253.221 149.547,253.221C149.82,253.221 150.041,253 150.041,252.728C150.041,250.14 149.547,250.14 149.547,250.14Z" style="fill:white;"/>
        </g>
        <g transform="matrix(-0.775391,-9.49581e-17,9.49581e-17,-0.775391,142.027,222.563)">
            <path d="M149.547,250.14C149.547,250.14 149.054,250.14 149.054,252.728C149.054,253 149.275,253.221 149.547,253.221C149.82,253.221 150.041,253 150.041,252.728C150.041,250.14 149.547,250.14 149.547,250.14Z" style="fill:white;"/>
        </g>
        <g transform="matrix(4.7479e-17,0.775391,-0.775391,4.7479e-17,219.07,-86.3953)">
            <path d="M149.547,250.14C149.547,250.14 149.054,250.14 149.054,252.728C149.054,253 149.275,253.221 149.547,253.221C149.82,253.221 150.041,253 150.041,252.728C150.041,250.14 149.547,250.14 149.547,250.14Z" style="fill:white;"/>
        </g>
        <g transform="matrix(4.7479e-17,-0.775391,0.775391,4.7479e-17,-166.931,145.52)">
            <path d="M149.547,250.14C149.547,250.14 149.054,250.14 149.054,252.728C149.054,253 149.275,253.221 149.547,253.221C149.82,253.221 150.041,253 150.041,252.728C150.041,250.14 149.547,250.14 149.547,250.14Z" style="fill:white;"/>
        </g>
        <g transform="matrix(-0.435952,0.435952,-0.435952,-0.435952,199.596,72.698)">
            <path d="M149.547,250.14C149.547,250.14 149.054,250.14 149.054,252.728C149.054,253 149.275,253.221 149.547,253.221C149.82,253.221 150.041,253 150.041,252.728C150.041,250.14 149.547,250.14 149.547,250.14Z" style="fill:white;"/>
        </g>
        <g transform="matrix(0.435952,-0.435952,0.435952,0.435952,-147.457,-13.5734)">
            <path d="M149.547,250.14C149.547,250.14 149.054,250.14 149.054,252.728C149.054,253 149.275,253.221 149.547,253.221C149.82,253.221 150.041,253 150.041,252.728C150.041,250.14 149.547,250.14 149.547,250.14Z" style="fill:white;"/>
        </g>
        <g transform="matrix(-0.435952,-0.435952,0.435952,-0.435952,-17.0663,203.089)">
            <path d="M149.547,250.14C149.547,250.14 149.054,250.14 149.054,252.728C149.054,253 149.275,253.221 149.547,253.221C149.82,253.221 150.041,253 150.041,252.728C150.041,250.14 149.547,250.14 149.547,250.14Z" style="fill:white;"/>
        </g>
        <g transform="matrix(0.435952,0.435952,-0.435952,0.435952,69.2051,-143.964)">
            <path d="M149.547,250.14C149.547,250.14 149.054,250.14 149.054,252.728C149.054,253 149.275,253.221 149.547,253.221C149.82,253.221 150.041,253 150.041,252.728C150.041,250.14 149.547,250.14 149.547,250.14Z" style="fill:white;"/>
        </g>
    </g>
</svg>
