<?xml version="1.0" encoding="UTF-8" standalone="no"?>
<!DOCTYPE svg PUBLIC "-//W3C//DTD SVG 1.1//EN" "http://www.w3.org/Graphics/SVG/1.1/DTD/svg11.dtd">
<svg width="100%" height="100%" viewBox="0 0 40 40" version="1.1" xmlns="http://www.w3.org/2000/svg" xmlns:xlink="http://www.w3.org/1999/xlink" xml:space="preserve" xmlns:serif="http://www.serif.com/" style="fill-rule:evenodd;clip-rule:evenodd;stroke-linecap:round;stroke-linejoin:round;stroke-miterlimit:1.5;">
    <g id="SaveIcon">
        <g transform="matrix(0.996435,0,0,0.996435,-213.959,-223.308)">
            <path d="M247.213,234.245C244.853,234.245 244.729,234.121 244.729,231.762L224.863,231.762C223.492,231.762 222.379,232.875 222.379,234.245L222.379,254.112C222.379,254.162 224.612,256.595 224.863,256.595L244.729,256.595C246.1,256.595 247.213,255.482 247.213,254.112L247.213,234.245Z" style="fill:none;stroke:white;stroke-width:1px;"/>
        </g>
        <path d="M26.658,8.132C26.658,7.854 26.432,7.628 26.153,7.628L13.847,7.628C13.568,7.628 13.342,7.854 13.342,8.132L13.342,17.221C13.342,17.5 13.568,17.726 13.847,17.726L26.153,17.726C26.432,17.726 26.658,17.5 26.658,17.221L26.658,8.132ZM25.935,8.176L14.065,8.176L14.065,17.178L25.935,17.178L25.935,8.176Z" style="fill:white;"/>
        <path d="M26.658,24.945C26.658,24.489 26.288,24.12 25.832,24.12L14.168,24.12C13.712,24.12 13.342,24.489 13.342,24.945L13.342,31.547C13.342,32.003 13.712,32.372 14.168,32.372L25.832,32.372C26.288,32.372 26.658,32.003 26.658,31.547L26.658,24.945ZM24.123,24.693L21.494,24.693L21.494,31.653L24.123,31.653L24.123,24.693Z" style="fill:white;"/>
    </g>
</svg>
