<?xml version="1.0" encoding="UTF-8" standalone="no"?>
<!DOCTYPE svg PUBLIC "-//W3C//DTD SVG 1.1//EN" "http://www.w3.org/Graphics/SVG/1.1/DTD/svg11.dtd">
<svg width="100%" height="100%" viewBox="0 0 40 40" version="1.1" xmlns="http://www.w3.org/2000/svg" xmlns:xlink="http://www.w3.org/1999/xlink" xml:space="preserve" xmlns:serif="http://www.serif.com/" style="fill-rule:evenodd;clip-rule:evenodd;stroke-linecap:round;stroke-linejoin:round;stroke-miterlimit:1.5;">
    <g transform="matrix(1.20153,0,0,1.20153,-310.005,-278.303)">
        <g id="SettingsIcon">
            <path d="M275.848,238.042C275.054,237.949 274.253,237.949 273.459,238.042L273.067,239.662C272.309,239.801 271.573,240.041 270.877,240.373L269.608,239.293C268.911,239.685 268.263,240.156 267.675,240.697L268.311,242.238C267.779,242.797 267.324,243.423 266.957,244.101L265.295,243.973C264.962,244.699 264.714,245.461 264.557,246.245L265.977,247.118C265.875,247.882 265.875,248.657 265.977,249.421L264.557,250.294C264.714,251.077 264.962,251.84 265.295,252.566L266.957,252.438C267.324,253.116 267.779,253.742 268.311,254.301L267.675,255.842C268.263,256.383 268.911,256.854 269.608,257.246L270.877,256.166C271.573,256.498 272.309,256.737 273.067,256.877L273.459,258.497C274.253,258.59 275.054,258.59 275.848,258.497L276.239,256.877C276.998,256.737 277.734,256.498 278.43,256.166L279.699,257.246C280.395,256.854 281.044,256.383 281.631,255.842L280.996,254.301C281.527,253.742 281.982,253.116 282.35,252.438L284.011,252.566C284.345,251.84 284.592,251.077 284.75,250.294L283.33,249.421C283.431,248.657 283.431,247.882 283.33,247.118L284.75,246.245C284.592,245.461 284.345,244.699 284.011,243.973L282.35,244.101C281.982,243.423 281.527,242.797 280.996,242.238L281.631,240.697C281.044,240.156 280.395,239.685 279.699,239.293L278.43,240.373C277.734,240.041 276.998,239.801 276.239,239.662L275.848,238.042ZM274.653,244.978C276.47,244.978 277.945,246.453 277.945,248.269C277.945,250.086 276.47,251.561 274.653,251.561C272.837,251.561 271.362,250.086 271.362,248.269C271.362,246.453 272.837,244.978 274.653,244.978Z" style="fill:none;stroke:white;stroke-width:0.83px;"/>
        </g>
    </g>
</svg>
